<svg xmlns="http://www.w3.org/2000/svg" viewBox="0 0 640 360" role="img" aria-labelledby="title desc">
  <title id="title">Magic Library theme preview</title>
  <desc id="desc">Bookshelves, glowing books, sparkles, an arch, and magical reading light.</desc>
  <defs>
    <linearGradient id="bg" x1="80" y1="20" x2="560" y2="340" gradientUnits="userSpaceOnUse">
      <stop stop-color="#4C1D95"/>
      <stop offset=".55" stop-color="#9333EA"/>
      <stop offset="1" stop-color="#F0ABFC"/>
    </linearGradient>
    <radialGradient id="glowFill" cx="50%" cy="54%" r="52%">
      <stop stop-color="#FEF9C3" stop-opacity=".9"/>
      <stop offset=".45" stop-color="#F0ABFC" stop-opacity=".35"/>
      <stop offset="1" stop-color="#F0ABFC" stop-opacity="0"/>
    </radialGradient>
    <filter id="shadow" x="-25%" y="-25%" width="150%" height="160%">
      <feDropShadow dx="0" dy="15" stdDeviation="14" flood-color="#2E1065" flood-opacity=".34"/>
    </filter>
    <filter id="glow" x="-50%" y="-50%" width="200%" height="200%">
      <feGaussianBlur stdDeviation="6" result="blur"/>
      <feMerge><feMergeNode in="blur"/><feMergeNode in="SourceGraphic"/></feMerge>
    </filter>
  </defs>
  <rect width="640" height="360" rx="30" fill="url(#bg)"/>
  <ellipse cx="320" cy="205" rx="190" ry="132" fill="url(#glowFill)"/>
  <g opacity=".45" stroke="#E9D5FF" stroke-width="5" fill="none">
    <path d="M87 310V122c0-43 35-78 78-78h310c43 0 78 35 78 78v188"/>
    <path d="M123 310V130c0-24 19-43 43-43h308c24 0 43 19 43 43v180"/>
  </g>
  <g filter="url(#shadow)">
    <rect x="64" y="214" width="512" height="22" rx="11" fill="#7C2D12"/>
    <rect x="84" y="255" width="472" height="23" rx="11" fill="#6B21A8"/>
    <g transform="translate(92 138)">
      <rect x="0" y="28" width="32" height="48" rx="5" fill="#FDE047"/>
      <rect x="40" y="3" width="28" height="73" rx="5" fill="#38BDF8"/>
      <rect x="76" y="18" width="34" height="58" rx="5" fill="#F472B6"/>
      <rect x="118" y="0" width="30" height="76" rx="5" fill="#86EFAC"/>
      <rect x="156" y="31" width="34" height="45" rx="5" fill="#FDBA74"/>
    </g>
    <g transform="translate(382 125)">
      <rect x="0" y="34" width="34" height="55" rx="5" fill="#A78BFA"/>
      <rect x="43" y="2" width="31" height="87" rx="5" fill="#FDE68A"/>
      <rect x="83" y="18" width="32" height="71" rx="5" fill="#7DD3FC"/>
      <rect x="124" y="0" width="29" height="89" rx="5" fill="#FDA4AF"/>
    </g>
    <g transform="translate(236 206)">
      <path d="M0 24c31-21 59-18 86 8v82c-27-23-55-27-86-9z" fill="#FFF7ED" stroke="#C084FC" stroke-width="7"/>
      <path d="M86 32c27-26 55-29 86-8v81c-31-18-59-14-86 9z" fill="#FCE7F3" stroke="#C084FC" stroke-width="7"/>
      <path d="M86 32v82" stroke="#A855F7" stroke-width="6"/>
      <path d="M24 55h41M24 73h34M109 55h41M110 74h28" stroke="#D946EF" stroke-width="5" stroke-linecap="round" opacity=".55"/>
    </g>
  </g>
  <g fill="#FEF9C3" filter="url(#glow)">
    <path d="M198 84l8 19 20 7-20 7-8 19-8-19-20-7 20-7z"/>
    <path d="M479 82l6 14 15 5-15 5-6 14-6-14-15-5 15-5z"/>
    <path d="M523 219l7 17 18 6-18 6-7 17-7-17-18-6 18-6z"/>
    <circle cx="130" cy="94" r="4"/><circle cx="546" cy="145" r="4"/><circle cx="118" cy="290" r="3"/>
  </g>
</svg>
